<svg xmlns="http://www.w3.org/2000/svg" version="1.1" xmlns:xlink="http://www.w3.org/1999/xlink" xmlns:svgjs="http://svgjs.dev/svgjs" width="128" height="128" viewBox="0 0 128 128"><g transform="matrix(0.8046875,0,0,0.8046875,12.760752631578946,30.2479390962458)"><svg viewBox="0 0 95 63" data-background-color="#ffffff" preserveAspectRatio="xMidYMid meet" height="84" width="128" xmlns="http://www.w3.org/2000/svg" xmlns:xlink="http://www.w3.org/1999/xlink"><g id="tight-bounds" transform="matrix(1,0,0,1,-0.24049999999999727,-0.04176847805433681)"><svg viewBox="0 0 95.481 63.08353695610866" height="63.08353695610866" width="95.481"><g><svg viewBox="0 0 95.481 63.08353695610866" height="63.08353695610866" width="95.481"><g><svg viewBox="0 0 95.481 63.08353695610866" height="63.08353695610866" width="95.481"><g id="textblocktransform"><svg viewBox="0 0 95.481 63.08353695610866" height="63.08353695610866" width="95.481" id="textblock"><g><svg viewBox="0 0 95.481 63.08353695610866" height="63.08353695610866" width="95.481"><g><svg viewBox="0 0 95.481 63.08353695610866" height="63.08353695610866" width="95.481"><g><svg xmlns="http://www.w3.org/2000/svg" xmlns:xlink="http://www.w3.org/1999/xlink" version="1.1" x="0" y="0" viewBox="8.189 6.884 94.73400000000001 62.58999999999999" enable-background="new 0 0 107.895 78.07" xml:space="preserve" height="63.08353695610866" width="95.481" class="icon-icon-0" data-fill-palette-color="accent" id="icon-0"><polygon points="102.923,54.276 96.612,60.683 55.61,19.633 14.584,60.683 8.189,54.276 55.584,6.887 55.655,6.955 55.904,6.884   75.281,26.08 75.281,12.474 83.281,12.474 83.281,34.824 " fill="#97bf0f" data-fill-palette-color="accent"></polygon><rect x="47.281" y="40.474" width="17" height="29" fill="#97bf0f" data-fill-palette-color="accent"></rect></svg></g></svg></g></svg></g></svg></g></svg></g></svg></g><defs></defs></svg><rect width="95.481" height="63.08353695610866" fill="none" stroke="none" visibility="hidden"></rect></g></svg></g></svg>